<svg viewBox="0 0 240 200" xmlns="http://www.w3.org/2000/svg" fill="none" stroke="#F7F3EC" stroke-width="2.2" stroke-linecap="round" stroke-linejoin="round">
  <!-- máquina de tatuaje averiada -->
  <path d="M40 90l70 22"/>
  <rect x="102" y="100" width="58" height="24" rx="4" transform="rotate(14 102 100)"/>
  <path d="M155 118l11 8-5 11-12-5z" stroke="#D4123A" transform="rotate(14 102 100)"/>
  <path d="M163 134l-4 20 12 22" stroke="#FF2E4A" stroke-width="2.5"/>
  <!-- chispas de error -->
  <path d="M186 110l10-8M190 122l12-2M182 130l8 10" stroke="#F2B134" stroke-width="2"/>
  <circle cx="196" cy="112" r="2.4" fill="#F2B134" stroke="none"/>
  <circle cx="200" cy="126" r="2" fill="#F2B134" stroke="none"/>
  <!-- llave inglesa -->
  <path d="M40 150a14 14 0 1 1 18 13l-38 38-10-10 38-38a14 14 0 0 1-8-3z" transform="scale(0.7) translate(20,10)" stroke="#BDB6AC"/>
  <path d="M30 170l-14 14" stroke="#BDB6AC"/>
</svg>
